<svg version="1.1" viewBox="0.0 0.0 960.0 540.0" fill="none" stroke="none" stroke-linecap="square" stroke-miterlimit="10" xmlns:xlink="http://www.w3.org/1999/xlink" xmlns="http://www.w3.org/2000/svg"><clipPath id="gb889638168_0_0.0"><path d="m0 0l960.0 0l0 540.0l-960.0 0l0 -540.0z" clip-rule="nonzero"/></clipPath><g clip-path="url(#gb889638168_0_0.0)"><path fill="#ffffff" d="m0 0l960.0 0l0 540.0l-960.0 0z" fill-rule="evenodd"/><path fill="#000000" fill-opacity="0.0" d="m420.00262 207.77953l475.46454 0l0 124.44093l-475.46454 0z" fill-rule="evenodd"/><path fill="#000000" d="m468.01825 234.05765q0.921875 0 0.921875 0.796875l0.515625 48.921875l10.484375 -48.40625q0.296875 -0.9375 1.015625 -1.015625l8.0 -0.296875q0.84375 0.078125 0.84375 0.796875l-17.0 63.890625q-0.296875 0.9375 -0.9375 1.015625l-9.765625 0.390625q-0.9375 -0.046875 -0.9375 -1.0625l-0.375 -39.640625l-8.171875 39.34375q-0.25 1.015625 -1.015625 1.015625l-10.15625 0.34375q-0.890625 -0.046875 -0.96875 -1.0625l-3.5625 -63.71875q0 -0.96875 1.15625 -1.015625l8.796875 -0.296875q0.921875 0 0.921875 0.796875l0.59375 49.71875l10.75 -49.203125q0.171875 -0.890625 1.3125 -1.015625l7.578125 -0.296875zm26.456543 57.984375q-0.984375 -2.515625 -1.34375 -4.984375q-0.359375 -2.484375 -0.359375 -6.796875q0 -4.3125 0.921875 -10.65625q3.09375 -21.15625 19.21875 -21.15625q6.21875 0 9.515625 4.28125q3.296875 4.265625 3.296875 11.078125q0 6.8125 -0.84375 13.234375q-0.125 1.140625 -1.3125 1.1875l-20.90625 0.71875q-0.03125 0.640625 -0.03125 1.6875q0 4.78125 1.671875 7.578125q1.671875 2.796875 5.046875 2.796875q3.390625 0 6.28125 -0.984375q2.90625 -1.0 3.40625 -1.0q0.515625 0 0.890625 0.34375q0.390625 0.328125 0.390625 0.921875l-0.84375 7.4375q-0.046875 0.640625 -0.25 0.828125q-0.1875 0.1875 -0.734375 0.40625q-5.109375 1.484375 -9.859375 1.484375q-4.734375 0 -7.359375 -1.140625q-2.625 -1.140625 -4.21875 -2.9375q-1.578125 -1.8125 -2.578125 -4.328125zm9.203125 -23.71875l-0.375 2.71875l11.046875 -0.546875q0.71875 -0.046875 0.921875 -0.265625q0.640625 -0.625 0.640625 -3.484375q0 -2.859375 -0.1875 -4.015625q-0.1875 -1.171875 -0.65625 -2.390625q-0.96875 -2.71875 -3.328125 -2.71875q-2.34375 0 -3.703125 0.8125q-3.0 1.859375 -4.359375 9.890625zm41.51837 -24.109375q-2.625 0 -4.1875 -1.640625q-1.5625 -1.65625 -1.5625 -4.25q0 -2.609375 2.09375 -4.65625q2.09375 -2.0625 4.703125 -2.0625q2.625 0 4.25 1.65625q1.640625 1.640625 1.640625 4.25q0 2.59375 -2.15625 4.65625q-2.15625 2.046875 -4.78125 2.046875zm4.6875 5.703125l-5.5 48.796875q-0.078125 0.59375 -0.296875 0.84375q-0.203125 0.25 -0.796875 0.296875l-8.5 0.296875q-0.9375 -0.09375 -0.9375 -0.8125l5.59375 -49.203125q0.15625 -0.9375 1.046875 -1.015625l8.25 -0.296875q1.140625 0.078125 1.140625 1.09375zm28.899597 51.578125l1.109375 -9.09375q-2.125 3.890625 -4.515625 5.96875q-2.390625 2.078125 -5.421875 2.078125q-3.015625 0 -5.046875 -0.984375q-2.03125 -1.0 -3.328125 -2.625q-1.28125 -1.640625 -2.078125 -3.921875q-1.484375 -4.0625 -1.484375 -11.109375q0 -7.046875 0.953125 -11.953125q0.953125 -4.90625 1.671875 -7.46875q0.71875 -2.5625 1.921875 -5.265625q1.203125 -2.71875 2.734375 -4.53125q3.46875 -4.140625 8.75 -4.140625q3.890625 0 5.96875 1.859375q2.078125 1.859375 3.515625 5.546875l0.421875 -5.671875q0.078125 -1.015625 1.09375 -1.0625l8.546875 -0.296875q0.890625 0.125 0.890625 0.890625l-5.75 51.328125q-1.234375 11.375 -7.0625 16.203125q-4.625 3.84375 -12.40625 3.84375q-4.953125 0 -10.03125 -1.140625q-0.71875 -0.125 -0.96875 -0.359375q-0.25 -0.234375 -0.25 -0.859375l0.84375 -7.671875q0.125 -1.140625 0.921875 -1.140625q0.5625 0 3.09375 0.84375q2.546875 0.859375 5.671875 0.859375q3.125 0 4.875 -0.578125q1.765625 -0.5625 2.828125 -1.921875q1.859375 -2.28125 2.53125 -7.625zm-10.109375 -20.890625q0 10.109375 5.421875 10.109375q2.359375 0 3.84375 -2.171875q1.484375 -2.1875 2.5625 -8.734375q1.078125 -6.5625 1.078125 -9.5625q0 -3.015625 -0.046875 -3.8125q-0.03125 -0.8125 -0.171875 -2.140625q-0.125 -1.34375 -0.46875 -2.25q-0.328125 -0.90625 -0.875 -1.84375q-1.09375 -1.8125 -3.5625 -1.8125q-2.453125 0 -3.890625 2.1875q-1.4375 2.171875 -2.234375 5.8125q-1.65625 7.78125 -1.65625 14.21875zm50.953003 -51.078125l-2.671875 23.734375q5.71875 -4.8125 11.640625 -4.8125q7.109375 0 8.96875 7.78125q0.5 2.109375 0.5 4.0q0 1.875 -0.125 3.015625l-4.0625 35.46875q-0.171875 1.046875 -1.046875 1.140625l-8.5625 0.296875q-0.921875 -0.09375 -0.921875 -0.8125l3.84375 -33.5q0.125 -1.109375 0.125 -2.0q0 -3.46875 -1.625 -4.703125q-1.625 -1.25 -4.140625 -1.25q-2.515625 0 -5.234375 1.046875l-4.484375 39.78125q-0.15625 1.046875 -1.046875 1.140625l-8.546875 0.296875q-0.9375 -0.09375 -0.9375 -0.8125l7.875 -69.515625q0.078125 -0.59375 0.265625 -0.84375q0.203125 -0.25 0.78125 -0.296875l8.296875 -0.296875q1.109375 0.125 1.109375 1.140625zm33.506897 19.46875q0.96875 -9.3125 1.265625 -9.625q0.296875 -0.328125 0.890625 -0.359375l8.078125 -0.296875q1.140625 0.078125 1.140625 1.0625q-0.796875 4.6875 -1.34375 9.0l9.859375 -0.328125q1.015625 0.03125 1.015625 1.09375l-1.1875 6.734375q-0.171875 1.015625 -1.0625 1.046875l-9.6875 0.390625q-2.875 25.890625 -2.875 28.5625q0 4.9375 4.234375 4.9375q2.15625 0 4.1875 -0.671875q2.03125 -0.671875 2.53125 -0.671875q0.890625 0 0.890625 1.09375l-0.890625 7.40625q-0.078125 0.640625 -0.3125 0.9375q-0.234375 0.296875 -2.078125 0.71875q-1.84375 0.421875 -6.28125 0.421875q-6.515625 0 -9.65625 -3.015625q-3.125 -3.03125 -3.125 -9.046875q0 -6.015625 3.34375 -30.546875l-4.140625 0.171875q-1.0625 -0.046875 -1.0625 -1.0625l1.140625 -6.8125q0.125 -0.96875 1.109375 -1.015625l4.015625 -0.125zm43.163574 -19.46875l-7.796875 69.140625q-0.078125 0.59375 -0.296875 0.84375q-0.203125 0.25 -0.796875 0.296875l-8.5 0.34375q-0.9375 -0.09375 -0.9375 -0.8125l7.828125 -69.515625q0.078125 -0.59375 0.296875 -0.84375q0.21875 -0.25 0.796875 -0.296875l8.296875 -0.296875q1.109375 0.125 1.109375 1.140625zm7.497864 62.515625q-0.984375 -2.515625 -1.34375 -4.984375q-0.359375 -2.484375 -0.359375 -6.796875q0 -4.3125 0.921875 -10.65625q3.09375 -21.15625 19.21875 -21.15625q6.21875 0 9.515625 4.28125q3.296875 4.265625 3.296875 11.078125q0 6.8125 -0.84375 13.234375q-0.125 1.140625 -1.3125 1.1875l-20.90625 0.71875q-0.03125 0.640625 -0.03125 1.6875q0 4.78125 1.671875 7.578125q1.671875 2.796875 5.046875 2.796875q3.390625 0 6.28125 -0.984375q2.90625 -1.0 3.40625 -1.0q0.515625 0 0.890625 0.34375q0.390625 0.328125 0.390625 0.921875l-0.84375 7.4375q-0.046875 0.640625 -0.25 0.828125q-0.1875 0.1875 -0.734375 0.40625q-5.109375 1.484375 -9.859375 1.484375q-4.734375 0 -7.359375 -1.140625q-2.625 -1.140625 -4.21875 -2.9375q-1.578125 -1.8125 -2.578125 -4.328125zm9.203125 -23.71875l-0.375 2.71875l11.046875 -0.546875q0.71875 -0.046875 0.921875 -0.265625q0.640625 -0.625 0.640625 -3.484375q0 -2.859375 -0.1875 -4.015625q-0.1875 -1.171875 -0.65625 -2.390625q-0.96875 -2.71875 -3.328125 -2.71875q-2.34375 0 -3.703125 0.8125q-3.0 1.859375 -4.359375 9.890625zm53.315247 -9.640625l-4.78125 -0.21875q-2.03125 0 -3.203125 0.9375q-1.15625 0.9375 -1.15625 2.6875q0 1.75 0.640625 3.875q0.84375 2.828125 2.9375 6.59375q2.09375 3.765625 2.90625 5.328125q2.453125 4.875 2.453125 9.265625q0 6.390625 -3.75 9.84375q-3.75 3.453125 -11.359375 3.453125q-3.765625 0 -6.015625 -0.40625q-2.234375 -0.40625 -2.46875 -0.625q-0.234375 -0.234375 -0.234375 -0.75l1.109375 -7.828125q0.078125 -1.0625 0.734375 -1.0625q0.65625 0 2.515625 0.46875q1.859375 0.46875 3.265625 0.46875q5.15625 0 5.15625 -4.109375q0 -2.921875 -1.25 -5.453125q-1.25 -2.546875 -2.71875 -5.25q-1.453125 -2.703125 -2.265625 -4.328125q-0.796875 -1.640625 -1.671875 -4.515625q-0.859375 -2.875 -0.859375 -5.40625q0 -5.9375 3.53125 -9.5625q3.546875 -3.640625 10.3125 -3.640625q4.359375 0 6.8125 0.421875q1.0625 0.171875 1.0625 1.09375l-0.9375 7.53125q0 1.1875 -0.765625 1.1875zm31.607544 0l-4.78125 -0.21875q-2.03125 0 -3.203125 0.9375q-1.15625 0.9375 -1.15625 2.6875q0 1.75 0.640625 3.875q0.84375 2.828125 2.9375 6.59375q2.09375 3.765625 2.90625 5.328125q2.453125 4.875 2.453125 9.265625q0 6.390625 -3.75 9.84375q-3.75 3.453125 -11.359375 3.453125q-3.765625 0 -6.015625 -0.40625q-2.234375 -0.40625 -2.46875 -0.625q-0.234375 -0.234375 -0.234375 -0.75l1.109375 -7.828125q0.078125 -1.0625 0.734375 -1.0625q0.65625 0 2.515625 0.46875q1.859375 0.46875 3.265625 0.46875q5.15625 0 5.15625 -4.109375q0 -2.921875 -1.25 -5.453125q-1.25 -2.546875 -2.71875 -5.25q-1.453125 -2.703125 -2.265625 -4.328125q-0.796875 -1.640625 -1.671875 -4.515625q-0.859375 -2.875 -0.859375 -5.40625q0 -5.9375 3.53125 -9.5625q3.546875 -3.640625 10.3125 -3.640625q4.359375 0 6.8125 0.421875q1.0625 0.171875 1.0625 1.09375l-0.9375 7.53125q0 1.1875 -0.765625 1.1875z" fill-rule="nonzero"/><path fill="#cccccc" d="m254.74184 232.42128l0 0c5.8553314 -17.711777 30.111557 -25.619293 54.17784 -17.661942l0 0c24.066284 7.9573517 38.829193 28.766281 32.973846 46.478058l0 0c-5.855316 17.711761 -30.111572 25.619293 -54.177856 17.661926l0 0c-24.066254 -7.9573364 -38.829163 -28.766281 -32.97383 -46.478043z" fill-rule="evenodd"/><path stroke="#000000" stroke-width="8.0" stroke-linejoin="round" stroke-linecap="butt" d="m254.74184 232.42128l0 0c5.8553314 -17.711777 30.111557 -25.619293 54.17784 -17.661942l0 0c24.066284 7.9573517 38.829193 28.766281 32.973846 46.478058l0 0c-5.855316 17.711761 -30.111572 25.619293 -54.177856 17.661926l0 0c-24.066254 -7.9573364 -38.829163 -28.766281 -32.97383 -46.478043z" fill-rule="evenodd"/><path fill="#cccccc" d="m181.86852 253.79466l0 0c6.8327484 -20.668396 58.441193 -22.190887 115.270706 -3.400589l0 0c56.8295 18.790283 97.35989 50.777863 90.52713 71.44626l0 0c-6.832733 20.668365 -58.441193 22.190857 -115.27069 3.4005737l0 0c-56.829514 -18.790283 -97.35989 -50.777863 -90.527145 -71.44624z" fill-rule="evenodd"/><path stroke="#000000" stroke-width="8.0" stroke-linejoin="round" stroke-linecap="butt" d="m181.86852 253.79466l0 0c6.8327484 -20.668396 58.441193 -22.190887 115.270706 -3.400589l0 0c56.8295 18.790283 97.35989 50.777863 90.52713 71.44626l0 0c-6.832733 20.668365 -58.441193 22.190857 -115.27069 3.4005737l0 0c-56.829514 -18.790283 -97.35989 -50.777863 -90.527145 -71.44624z" fill-rule="evenodd"/></g></svg>